<?xml version="1.0" encoding="utf-8"?>

<!-- Uploaded to: SVG Repo, www.svgrepo.com, Generator: SVG Repo Mixer Tools -->
<svg version="1.1" id="Icons" xmlns="http://www.w3.org/2000/svg" xmlns:xlink="http://www.w3.org/1999/xlink" 
	 viewBox="0 0 32 32" xml:space="preserve">
<style type="text/css">
	.st0{fill:none;stroke:#000000;stroke-width:2;stroke-linecap:round;stroke-linejoin:round;stroke-miterlimit:10;}
	.st1{fill:none;stroke:#000000;stroke-width:2;stroke-linecap:round;stroke-linejoin:round;}
	.st2{fill:none;stroke:#000000;stroke-width:2;stroke-linecap:round;stroke-linejoin:round;stroke-dasharray:5.2066,0;}
</style>
<line class="st0" x1="3" y1="11" x2="29" y2="11"/>
<line class="st0" x1="7" y1="8" x2="7" y2="8"/>
<line class="st0" x1="10" y1="8" x2="10" y2="8"/>
<line class="st0" x1="13" y1="8" x2="13" y2="8"/>
<polyline class="st0" points="9,27 3,27 3,5 29,5 29,27 23,27 "/>
<path class="st0" d="M12,17v4c0,2.2,1.8,4,4,4s4-1.8,4-4v-4H12z"/>
<path class="st0" d="M12,17H8v1.5C8,21,10,23,12.5,23h0"/>
<path class="st0" d="M20,17h4v1.5c0,2.5-2,4.5-4.5,4.5h0"/>
<line class="st0" x1="14" y1="29" x2="18" y2="29"/>
<line class="st0" x1="16" y1="29" x2="16" y2="25"/>
</svg>